<?xml version="1.0" encoding="UTF-8" standalone="no"?>
<svg
   width="1925.8595"
   zoomAndPan="magnify"
   viewBox="0 0 1444.3946 1108.4609"
   height="1477.948"
   preserveAspectRatio="xMidYMid"
   version="1.0"
   id="svg51"
   sodipodi:docname="logo-corner.svg"
   inkscape:version="1.4.4 (dcaf3e7d9e, 2026-05-05)"
   inkscape:export-filename="logo512.png"
   inkscape:export-xdpi="25.522118"
   inkscape:export-ydpi="25.522118"
   xmlns:inkscape="http://www.inkscape.org/namespaces/inkscape"
   xmlns:sodipodi="http://sodipodi.sourceforge.net/DTD/sodipodi-0.dtd"
   xmlns="http://www.w3.org/2000/svg"
   xmlns:svg="http://www.w3.org/2000/svg">
  <sodipodi:namedview
     id="namedview51"
     pagecolor="#ffffff"
     bordercolor="#000000"
     borderopacity="0.25"
     inkscape:showpageshadow="2"
     inkscape:pageopacity="0.0"
     inkscape:pagecheckerboard="0"
     inkscape:deskcolor="#d1d1d1"
     inkscape:zoom="0.29924563"
     inkscape:cx="795.33325"
     inkscape:cy="581.46212"
     inkscape:window-width="1920"
     inkscape:window-height="1008"
     inkscape:window-x="0"
     inkscape:window-y="0"
     inkscape:window-maximized="1"
     inkscape:current-layer="svg51"
     showguides="false" />
  <defs
     id="defs1">
    <g
       id="g1" />
    <clipPath
       clipPathUnits="userSpaceOnUse"
       id="clipPath51">
      <path
         d="M 0,-0.03906 H 1444.5 V 1108.4609 H 0 Z m 0,0"
         clip-rule="nonzero"
         id="path51"
         style="stroke-width:0.999997" />
    </clipPath>
    <clipPath
       clipPathUnits="userSpaceOnUse"
       id="clipPath52">
      <path
         d="M 0,-0.03906 H 1444.5 V 1108.4609 H 0 Z m 0,0"
         clip-rule="nonzero"
         id="path52"
         style="stroke-width:0.999997" />
    </clipPath>
  </defs>
  <path
     style="display:inline;fill:#0081ff;fill-opacity:1"
     d="M 1215.5586,1108.4883 H 228.83593 C 102.65235,1108.4883 0,1005.8281 0,879.6523 V 228.83594 C 0,102.66016 102.65234,0 228.83593,0 h 986.72267 c 126.1836,0 228.8359,102.66016 228.8359,228.83594 V 879.6523 c 0,126.1758 -102.6523,228.836 -228.8359,228.836 z"
     id="path54" />
  <path
     style="display:inline;fill:#0081ff;fill-opacity:1"
     d="M 228.83593,33.58984"
     id="path53" />
  <path
     id="path2"
     style="display:inline;fill:#ffffff;fill-opacity:1"
     d="m 228.30469,15.603516 c -34.04912,0.07574 -68.05622,8.44493 -98.20779,24.275749 -36.302089,19.019196 -66.922511,48.700752 -87.050209,84.401255 -18.136203,32.03951 -27.683173,68.86849 -27.440039,105.68237 -0.03385,30.87289 -0.0072,61.74583 -0.01379,92.61875 0.01612,186.98343 0.02104,373.96699 0.04416,560.95035 0.709973,42.38876 14.447278,84.4933 39.052425,119.03441 24.384926,34.4827 59.128637,61.62 98.683427,76.5106 24.95216,9.4824 51.7029,14.1416 78.38806,13.81 110.86848,0.026 221.73698,0 332.60547,0.011 218.21729,-0 436.43469,0 654.65189,-0 42.5733,-0.6339 84.8941,-14.3916 119.5595,-39.1463 29.7307,-21.0882 54.0348,-49.8186 69.6569,-82.76858 13.6734,-28.75979 20.7553,-60.62321 20.5499,-92.46771 0.037,-38.75388 0.012,-77.50781 0.02,-116.26172 -0,-179.08695 0.01,-358.17402 -0,-537.26089 -0.7195,-43.00723 -14.8587,-85.71963 -40.1378,-120.54058 -24.2411,-33.656546 -58.4045,-60.154568 -97.2209,-74.855264 -25.0512,-9.568393 -51.9219,-14.287031 -78.7316,-13.955376 -80.6299,-0.04392 -161.2597,-0.005 -241.8895,-0.01814 -247.3966,-0.0036 -494.79328,-0.002 -742.18984,-0.0088 -0.0946,-0.03084 -0.22276,0.0029 -0.32617,-0.0078 z" />
  <path
     fill="#0081ff"
     d="m 228.83593,50.386715 h 986.72267 c 2.9218,0 5.8398,0.0703 8.7578,0.21484 2.918,0.14453 5.8281,0.35938 8.7344,0.64453 2.9062,0.28516 5.8046,0.64453 8.6914,1.07032 2.8906,0.42968 5.7656,0.92968 8.6328,1.5 2.8633,0.57031 5.7109,1.20703 8.5429,1.91796 2.836,0.71094 5.6485,1.48829 8.4415,2.33594 2.7968,0.84766 5.5664,1.76172 8.3164,2.7461 2.75,0.98437 5.4765,2.03515 8.1718,3.15234 2.6993,1.11719 5.3672,2.30078 8.0078,3.55078 2.6407,1.25 5.25,2.5625 7.8243,3.9375 2.5742,1.37891 5.1172,2.81641 7.6211,4.31641 2.5039,1.5039 4.9726,3.0664 7.3984,4.6875 2.4297,1.62109 4.8164,3.30468 7.1641,5.04297 2.3437,1.73828 4.6445,3.53515 6.9023,5.39062 2.2578,1.85156 4.4688,3.75781 6.6328,5.71875 2.1641,1.96094 4.2774,3.976555 6.3438,6.039055 2.0664,2.06642 4.0781,4.17969 6.039,6.34375 1.961,2.16407 3.8711,4.375 5.7227,6.63282 1.8515,2.25781 3.6484,4.55859 5.3867,6.90625 1.7422,2.34375 3.4219,4.73046 5.043,7.16015 1.625,2.42578 3.1875,4.89453 4.6875,7.39844 1.5,2.50781 2.9414,5.04687 4.3164,7.62109 1.3789,2.57813 2.6914,5.1836 3.9375,7.82422 1.25,2.64063 2.4336,5.3086 3.5508,8.00781 1.1171,2.69922 2.1679,5.42188 3.1523,8.17188 0.9844,2.75 1.8984,5.52344 2.7461,8.31641 0.8477,2.79296 1.6289,5.60937 2.3359,8.4414 0.711,2.83203 1.3516,5.67969 1.9219,8.54688 0.5664,2.86328 1.0664,5.73828 1.4961,8.6289 0.4297,2.89063 0.7852,5.78516 1.0703,8.69141 0.2891,2.90625 0.5039,5.82031 0.6445,8.73828 0.1446,2.91406 0.2149,5.83203 0.2149,8.75391 v 650.81634 c 0,2.9219 -0.07,5.8399 -0.2149,8.7579 -0.1406,2.9179 -0.3554,5.8281 -0.6445,8.7343 -0.2851,2.9063 -0.6406,5.8047 -1.0703,8.6914 -0.4297,2.8907 -0.9297,5.7657 -1.4961,8.6329 -0.5703,2.8632 -1.2109,5.7109 -1.9219,8.5429 -0.707,2.836 -1.4882,5.6485 -2.3359,8.4414 -0.8477,2.7969 -1.7617,5.5703 -2.7461,8.3164 -0.9844,2.75 -2.0352,5.4766 -3.1523,8.1719 -1.1172,2.6992 -2.3008,5.3672 -3.5508,8.0078 -1.2461,2.6406 -2.5586,5.25 -3.9375,7.8242 -1.375,2.5782 -2.8164,5.1172 -4.3164,7.6211 -1.5,2.5039 -3.0625,4.9727 -4.6875,7.3985 -1.6211,2.4297 -3.3008,4.8164 -5.043,7.164 -1.7383,2.3438 -3.5352,4.6446 -5.3867,6.9024 -1.8516,2.2578 -3.7617,4.4687 -5.7227,6.6328 -1.9609,2.16413 -3.9726,4.27733 -6.039,6.34373 -2.0664,2.0664 -4.1797,4.0782 -6.3438,6.0391 -2.164,1.9609 -4.375,3.8711 -6.6328,5.7227 -2.2578,1.8515 -4.5586,3.6484 -6.9023,5.3867 -2.3477,1.7422 -4.7344,3.4219 -7.1641,5.0429 -2.4258,1.625 -4.8945,3.1875 -7.3984,4.6875 -2.5039,1.5 -5.0469,2.9415 -7.6211,4.3165 -2.5743,1.3789 -5.1836,2.6914 -7.8243,3.9375 -2.6406,1.25 -5.3085,2.4335 -8.0078,3.5507 -2.6953,1.1172 -5.4218,2.168 -8.1718,3.1524 -2.75,0.9844 -5.5196,1.8984 -8.3164,2.7461 -2.793,0.8476 -5.6055,1.6289 -8.4415,2.3359 -2.832,0.7109 -5.6796,1.3516 -8.5429,1.9219 -2.8672,0.5703 -5.7422,1.0664 -8.6328,1.4961 -2.8868,0.4297 -5.7852,0.7851 -8.6914,1.0703 -2.9063,0.2891 -5.8164,0.5039 -8.7344,0.6445 -2.918,0.1446 -5.836,0.2149 -8.7578,0.2149 H 228.83593 c -2.91797,0 -5.83984,-0.07 -8.75389,-0.2149 -2.91797,-0.1406 -5.83204,-0.3554 -8.73829,-0.6445 -2.90625,-0.2852 -5.80079,-0.6406 -8.6914,-1.0703 -2.88672,-0.4297 -5.76563,-0.9258 -8.62891,-1.4961 -2.86328,-0.5703 -5.71484,-1.211 -8.54687,-1.9219 -2.83203,-0.707 -5.64453,-1.4883 -8.44141,-2.3359 -2.79297,-0.8477 -5.56641,-1.7617 -8.31641,-2.7461 -2.75,-0.9844 -5.47265,-2.0352 -8.17187,-3.1524 -2.69922,-1.1172 -5.36719,-2.3007 -8.00781,-3.5507 -2.64063,-1.2461 -5.24611,-2.5586 -7.82422,-3.9375 -2.57422,-1.375 -5.11328,-2.8165 -7.6211,-4.3165 -2.5039,-1.5 -4.96875,-3.0625 -7.39843,-4.6875 -2.42969,-1.621 -4.81641,-3.3007 -7.16016,-5.0429 -2.34766,-1.7383 -4.64844,-3.5352 -6.90625,-5.3867 -2.25781,-1.8516 -4.46875,-3.7618 -6.63281,-5.7227 -2.16406,-1.9609 -4.27735,-3.9727 -6.34375,-6.0391 -2.0625,-2.0664 -4.078135,-4.1796 -6.039065,-6.34373 -1.96094,-2.1641 -3.86719,-4.375 -5.71875,-6.6328 -1.85547,-2.2578 -3.65235,-4.5586 -5.39063,-6.9024 -1.73828,-2.3476 -3.42187,-4.7343 -5.04297,-7.164 -1.62109,-2.4258 -3.18359,-4.8946 -4.6875,-7.3985 -1.5,-2.5039 -2.9375,-5.0429 -4.316404,-7.6211 -1.375,-2.5742 -2.6875,-5.1836 -3.9375,-7.8242 -1.25,-2.6406 -2.429687,-5.3086 -3.550781,-8.0078 -1.117187,-2.6953 -2.167969,-5.4219 -3.152344,-8.1719 -0.980469,-2.7461 -1.898437,-5.5195 -2.746093,-8.3164 -0.847657,-2.7929 -1.625,-5.6054 -2.335938,-8.4414 -0.710938,-2.832 -1.347656,-5.6797 -1.917969,-8.5429 -0.570312,-2.8672 -1.070312,-5.7422 -1.5,-8.6329 -0.425781,-2.8867 -0.785156,-5.7851 -1.070312,-8.6914 -0.285157,-2.9062 -0.5,-5.8164 -0.644531,-8.7343 -0.144532,-2.918 -0.214844,-5.836 -0.214844,-8.7579 V 228.83593 c 0,-2.92187 0.07031,-5.83985 0.214844,-8.75391 0.144531,-2.91797 0.359374,-5.83202 0.644531,-8.73827 0.285156,-2.90625 0.644531,-5.80078 1.070312,-8.69142 0.429688,-2.89062 0.929688,-5.76562 1.5,-8.6289 0.570313,-2.86718 1.207031,-5.71485 1.917969,-8.54687 0.710938,-2.83203 1.488281,-5.64844 2.335938,-8.4414 0.847656,-2.79298 1.765624,-5.56641 2.746093,-8.31641 0.984375,-2.75 2.035157,-5.47267 3.152344,-8.17188 1.121094,-2.69921 2.300781,-5.36719 3.550781,-8.00781 1.25,-2.64063 2.5625,-5.24609 3.9375,-7.82423 1.378904,-2.57422 2.816404,-5.11327 4.316404,-7.62108 1.50391,-2.50392 3.06641,-4.97267 4.6875,-7.39844 1.6211,-2.42969 3.30469,-4.8164 5.04297,-7.16015 1.73828,-2.34766 3.53516,-4.64844 5.39063,-6.90625 1.85156,-2.25782 3.75781,-4.46875 5.71875,-6.63282 1.96093,-2.16406 3.976565,-4.27734 6.039065,-6.34375 2.0664,-2.0625 4.17969,-4.078125 6.34375,-6.039065 2.16406,-1.96094 4.375,-3.86719 6.63281,-5.71875 2.25781,-1.85547 4.55859,-3.65234 6.90625,-5.39062 2.34375,-1.73829 4.73047,-3.42188 7.16016,-5.04297 2.42968,-1.6211 4.89453,-3.1836 7.39843,-4.6875 2.50782,-1.5 5.04687,-2.9375 7.6211,-4.31641 2.57812,-1.375 5.18359,-2.6875 7.82422,-3.9375 2.64062,-1.25 5.30859,-2.43359 8.00781,-3.55078 2.69922,-1.11719 5.42187,-2.16797 8.17187,-3.15234 2.75,-0.98438 5.52344,-1.89844 8.31641,-2.7461 2.79688,-0.84765 5.60938,-1.625 8.44141,-2.33594 2.83203,-0.71093 5.68359,-1.34765 8.54687,-1.91796 2.86328,-0.57032 5.74219,-1.07032 8.62891,-1.5 2.89062,-0.42579 5.78515,-0.78516 8.6914,-1.07032 2.90625,-0.28515 5.82032,-0.5 8.73829,-0.64453 2.91406,-0.14453 5.83592,-0.21484 8.75389,-0.21484 z m 0,0"
     fill-opacity="1"
     fill-rule="nonzero"
     id="path3" />
  <g
     fill="#ffffff"
     fill-opacity="1"
     id="g6"
     transform="translate(-27.796875,-195.75)">
    <g
       transform="translate(153.59486,590.51445)"
       id="g5">
      <g
         id="g4">
        <path
           d="M 263.85937,-232.53125 219.8125,0 H 156.34375 L 140.4375,-87 c -0.94922,-4.976562 -1.85156,-10.066406 -2.70313,-15.26563 -0.84375,-5.19531 -1.61718,-10.47265 -2.3125,-15.82812 -0.6875,-5.35156 -1.35156,-10.73437 -1.98437,-16.14062 -0.63672,-5.40625 -1.16406,-10.81641 -1.57813,-16.23438 -0.32421,4.35547 -0.75,9.18359 -1.28125,14.48438 -0.53125,5.30468 -1.16796,10.79296 -1.90625,16.46874 -0.74218,5.66797 -1.51171,11.26172 -2.31249,16.78125 -0.79297,5.511724 -1.66797,10.652349 -2.625,15.42188 L 107.51563,0 H 44.6875 L 0,-232.53125 H 54.078125 L 70.625,-131.21875 c 0.632812,3.92969 1.347656,8.54297 2.140625,13.84375 0.789063,5.30469 1.554687,10.94922 2.296875,16.9375 0.75,5.992188 1.46875,12.039062 2.15625,18.140625 0.6875,6.09375 1.347656,11.898437 1.984375,17.40625 0.632813,-5.832031 1.375,-11.847656 2.21875,-18.046875 0.851563,-6.207031 1.753906,-12.253906 2.703125,-18.14063 0.957031,-5.88281 1.859375,-11.36718 2.703125,-16.45312 0.851563,-5.09375 1.65625,-9.44141 2.40625,-13.04687 L 109.75,-232.53125 h 44.6875 l 18.45312,101.95313 c 0.94532,4.24218 1.86719,9.03906 2.76563,14.39062 0.90625,5.35547 1.80469,11 2.70312,16.9375 0.90625,5.9375 1.72657,11.851562 2.46875,17.734375 0.75,5.886719 1.39063,11.429687 1.92188,16.625 0.42578,-5.9375 1.08594,-12.613281 1.98437,-20.03125 0.90625,-7.425781 1.94141,-15.113285 3.10938,-23.062505 1.16406,-7.95703 2.38281,-15.59375 3.65625,-22.90624 l 17.01562,-101.64063 z m 0,0"
           id="path4" />
      </g>
    </g>
  </g>
  <g
     fill="#ffffff"
     fill-opacity="1"
     id="g9"
     transform="translate(-27.796875,-195.75)">
    <g
       transform="translate(405.41078,590.51445)"
       id="g8">
      <g
         id="g7">
        <path
           d="M 131.21875,0 H 19.25 v -232.53125 h 111.96875 v 46.92188 h -56.625 v 41.98437 h 52.48438 v 46.921875 H 74.59375 V -47.5625 h 56.625 z m 0,0"
           id="path6" />
      </g>
    </g>
  </g>
  <g
     fill="#ffffff"
     fill-opacity="1"
     id="g12"
     transform="translate(-27.796875,-195.75)">
    <g
       transform="translate(537.61909,590.51445)"
       id="g11">
      <g
         id="g10">
        <path
           d="m 127.71875,0 -8.75,-45.328125 H 68.703125 L 59.96875,0 H 0 l 56.625,-232.53125 h 73 L 187.04687,0 Z M 110.375,-92.890625 101,-144.89062 c -1.0625,-5.83204 -2.046875,-11.50391 -2.953125,-17.01563 -0.898437,-5.51953 -1.6875,-10.79687 -2.375,-15.82812 -0.6875,-5.03907 -1.296875,-9.73438 -1.828125,-14.07813 -0.429688,4.13672 -0.984375,8.69922 -1.671875,13.6875 -0.6875,4.98047 -1.511719,10.19922 -2.46875,15.65625 -0.960937,5.46094 -1.964844,11.10547 -3.015625,16.9375 l -9.859375,52.640625 z m 0,0"
           id="path9" />
      </g>
    </g>
  </g>
  <g
     fill="#ffffff"
     fill-opacity="1"
     id="g15"
     transform="translate(-27.796875,-195.75)">
    <g
       transform="translate(712.61251,590.51445)"
       id="g14">
      <g
         id="g13">
        <path
           d="M 102.59375,0 H 47.5625 v -184.65625 h -42 v -47.875 h 138.70312 v 47.875 h -41.67187 z m 0,0"
           id="path12" />
      </g>
    </g>
  </g>
  <g
     fill="#ffffff"
     fill-opacity="1"
     id="g18"
     transform="translate(-27.796875,-195.75)">
    <g
       transform="translate(850.38765,590.51445)"
       id="g17">
      <g
         id="g16">
        <path
           d="M 179.09375,0 H 123.73438 V -97.015625 H 74.59375 V 0 H 19.25 v -232.53125 h 55.34375 v 87.95313 h 49.14063 v -87.95313 h 55.35937 z m 0,0"
           id="path15" />
      </g>
    </g>
  </g>
  <g
     fill="#ffffff"
     fill-opacity="1"
     id="g21"
     transform="translate(-27.796875,-195.75)">
    <g
       transform="translate(1036.6738,590.51445)"
       id="g20">
      <g
         id="g19">
        <path
           d="M 131.21875,0 H 19.25 v -232.53125 h 111.96875 v 46.92188 h -56.625 v 41.98437 h 52.48438 v 46.921875 H 74.59375 V -47.5625 h 56.625 z m 0,0"
           id="path18" />
      </g>
    </g>
  </g>
  <g
     fill="#ffffff"
     fill-opacity="1"
     id="g24"
     transform="translate(-27.796875,-195.75)">
    <g
       transform="translate(1168.8822,590.51445)"
       id="g23">
      <g
         id="g22">
        <path
           d="m 81.4375,-232.53125 c 18.019531,0 33.01953,2.54688 45,7.64063 11.98828,5.08593 20.95312,12.6875 26.89062,22.8125 5.9375,10.125 8.90625,22.875 8.90625,38.25 0,9.02343 -1.16796,17.35156 -3.5,24.98437 -2.33593,7.625 -5.83593,14.57031 -10.5,20.82812 -4.66796,6.26172 -10.55468,11.82813 -17.65625,16.70313 L 179.09375,0 H 118.17188 L 81.75,-87.3125 H 74.59375 V 0 H 19.25 V -232.53125 Z M 80.796875,-186.25 H 74.59375 v 55.98438 h 5.890625 c 8.269531,0 14.472656,-2.53907 18.609375,-7.625 4.13281,-5.09375 6.20313,-12.78125 6.20313,-23.0625 0,-8.48829 -2.04297,-14.82813 -6.125005,-19.01563 -4.085937,-4.1875 -10.210937,-6.28125 -18.375,-6.28125 z m 0,0"
           id="path21" />
      </g>
    </g>
  </g>
  <g
     fill="#ffffff"
     fill-opacity="1"
     id="g27"
     transform="translate(-27.796875,-195.75)">
    <g
       transform="translate(426.88491,876.37495)"
       id="g26">
      <g
         id="g25">
        <path
           d="m 140.78125,-71.109375 c 0,14.523437 -3.01563,27.359375 -9.04688,38.515625 -6.03124,11.15625 -14.54687,19.914062 -25.54687,26.265625 -11,6.3515625 -23.976562,9.53125 -38.921875,9.53125 -6.730469,0 -13.273437,-0.453125 -19.625,-1.359375 C 41.296875,0.9375 34.972656,-0.582031 28.671875,-2.71875 22.367188,-4.851562 15.851562,-7.789062 9.125,-11.53125 v -56.375 c 9.1875,6.1875 18.609375,11.023438 28.265625,14.5 9.664063,3.46875 18.503906,5.203125 26.515625,5.203125 4.59375,0 8.351562,-0.742187 11.28125,-2.234375 2.9375,-1.5 5.125,-3.554688 6.5625,-6.171875 1.445312,-2.625 2.171875,-5.644531 2.171875,-9.0625 0,-3.414063 -0.589844,-6.585937 -1.765625,-9.515625 C 80.988281,-78.125 78.375,-81.378906 74.3125,-84.953125 70.257812,-88.535156 63.960938,-93 55.421875,-98.34375 c -6.835937,-4.375 -13.027344,-8.77344 -18.578125,-13.20313 -5.554688,-4.4375 -10.28125,-9.29687 -14.1875,-14.57812 -3.898438,-5.28125 -6.886719,-11.39062 -8.96875,-18.32812 -2.074219,-6.94532 -3.109375,-15.11719 -3.109375,-24.51563 0,-13.875 2.71875,-25.9375 8.15625,-36.1875 5.445313,-10.25 13.457031,-18.20312 24.03125,-23.85937 10.570313,-5.66407 23.546875,-8.5 38.921875,-8.5 9.707031,0 19.47266,1.39062 29.29688,4.17187 9.82031,2.77344 19.7539,6.98438 29.79687,12.64063 l -14.89062,48.85937 c -8.11719,-5.125 -15.64844,-8.91406 -22.59375,-11.375 -6.937505,-2.45703 -13.398442,-3.6875 -19.375005,-3.6875 -3.949219,0 -7.179687,0.66797 -9.6875,2 -2.511719,1.33594 -4.355469,3.125 -5.53125,5.375 -1.167969,2.24219 -1.75,4.80469 -1.75,7.6875 0,4.15625 0.691406,7.73047 2.078125,10.71875 1.382812,2.99219 4.238281,6.16797 8.5625,9.53125 4.320312,3.36719 10.914062,7.77344 19.78125,13.21875 9.39453,5.76172 17.32031,11.84375 23.78125,18.25 6.45703,6.40625 11.34375,13.5625 14.65625,21.46875 3.3125,7.898438 4.96875,17.078125 4.96875,27.546875 z m 0,0"
           id="path24" />
      </g>
    </g>
  </g>
  <g
     fill="#ffffff"
     fill-opacity="1"
     id="g30"
     transform="translate(-27.796875,-195.75)">
    <g
       transform="translate(568.94107,876.37495)"
       id="g29">
      <g
         id="g28">
        <path
           d="M 103.29688,0 H 47.890625 V -185.9375 H 5.609375 v -48.21875 H 145.26562 v 48.21875 h -41.96874 z m 0,0"
           id="path27" />
      </g>
    </g>
  </g>
  <g
     fill="#ffffff"
     fill-opacity="1"
     id="g33"
     transform="translate(-27.796875,-195.75)">
    <g
       transform="translate(712.9191,876.37495)"
       id="g32">
      <g
         id="g31">
        <path
           d="m 128.60937,0 -8.81249,-45.640625 H 69.1875 L 60.375,0 H 0 L 57.015625,-234.15625 H 130.53125 L 188.34375,0 Z m -17.45312,-93.53125 -9.45312,-52.375 c -1.07422,-5.875 -2.062505,-11.58594 -2.968755,-17.14062 -0.90625,-5.55079 -1.710937,-10.85938 -2.40625,-15.92188 -0.6875,-5.07031 -1.296875,-9.80078 -1.828125,-14.1875 -0.429688,4.16797 -0.992188,8.76172 -1.6875,13.78125 -0.699219,5.02344 -1.527344,10.28125 -2.484375,15.78125 -0.960937,5.49219 -1.976563,11.17188 -3.046875,17.04688 l -9.921875,53.01562 z m 0,0"
           id="path30" />
      </g>
    </g>
  </g>
  <g
     fill="#ffffff"
     fill-opacity="1"
     id="g36"
     transform="translate(-27.796875,-195.75)">
    <g
       transform="translate(894.37341,876.37495)"
       id="g35">
      <g
         id="g34">
        <path
           d="m 82,-234.15625 c 18.15625,0 33.26563,2.5625 45.32813,7.6875 12.06249,5.125 21.08203,12.78906 27.06249,22.98438 5.97657,10.19921 8.96875,23.03906 8.96875,38.51562 0,9.08594 -1.17968,17.46875 -3.53125,25.15625 -2.34375,7.6875 -5.86718,14.68359 -10.5625,20.98437 -4.69921,6.29297 -10.625,11.89844 -17.78125,16.8125 L 180.34375,0 H 119 L 82.328125,-87.921875 h -7.21875 V 0 H 19.375 v -234.15625 z m -0.640625,46.60938 h -6.25 v 56.375 h 5.9375 c 8.320313,0 14.566406,-2.5625 18.734375,-7.6875 4.16406,-5.125 6.25,-12.86329 6.25,-23.21875 0,-8.53907 -2.05859,-14.92188 -6.171875,-19.14063 -4.117187,-4.21875 -10.28125,-6.32812 -18.5,-6.32812 z m 0,0"
           id="path33" />
      </g>
    </g>
  </g>
  <g
     fill="#ffffff"
     fill-opacity="1"
     id="g39"
     transform="translate(-27.796875,-195.75)">
    <g
       transform="translate(349.34031,1160.3522)"
       id="g38">
      <g
         id="g37">
        <path
           d="M 157.84375,-45.265625 H 134.98437 V 0 H 81.25 V -45.265625 H 5.28125 v -43.8125 L 82.515625,-233.8125 h 52.468745 v 143.765625 h 22.85938 z M 81.25,-90.046875 v -31.812505 c 0,-0.95703 0.02344,-3.19531 0.07813,-6.71874 0.05078,-3.51954 0.128906,-7.38282 0.234375,-11.59375 0.101562,-4.21875 0.207031,-7.89454 0.3125,-11.03125 0.113281,-3.14454 0.222656,-4.82813 0.328125,-5.04688 h -1.28125 c -1.386719,4.58594 -2.882813,8.79688 -4.484375,12.64063 -1.59375,3.83593 -3.296875,7.40234 -5.109375,10.70312 l -22.54688,42.859375 z m 0,0"
           id="path36" />
      </g>
    </g>
  </g>
  <g
     fill="#ffffff"
     fill-opacity="1"
     id="g42"
     transform="translate(-27.796875,-195.75)">
    <g
       transform="translate(506.9182,1160.3522)"
       id="g41">
      <g
         id="g40">
        <path
           d="m 150.65625,-116.59375 c 0,16.855469 -1.04297,32.558594 -3.125,47.109375 -2.07422,14.554687 -5.69922,27.265625 -10.875,38.140625 -5.16797,10.875 -12.25781,19.355469 -21.26562,25.4375 -9.01172,6.070312 -20.500005,9.109375 -34.468755,9.109375 -15.355469,0 -28.179687,-4.476563 -38.46875,-13.4375 -10.28125,-8.957031 -18.011719,-22.3125 -23.1875,-40.0625 -5.167969,-17.75 -7.75,-39.847656 -7.75,-66.296875 0,-27.71875 2.503906,-50.47656 7.515625,-68.28125 5.007812,-17.80078 12.65625,-30.96875 22.9375,-39.5 10.289062,-8.53125 23.273438,-12.79687 38.953125,-12.79687 15.457031,0 28.332035,4.50781 38.625005,13.51562 10.28906,9.01172 18.04687,22.44922 23.26562,40.3125 5.22656,17.85547 7.84375,40.10547 7.84375,66.75 z m -84.453125,0 c 0,16.636719 0.375,30.234375 1.125,40.796875 0.75,10.554687 2.160156,18.335937 4.234375,23.34375 2.082031,5.011719 5.203125,7.515625 9.359375,7.515625 4.269531,0 7.46875,-2.503906 9.59375,-7.515625 2.132813,-5.007813 3.570313,-12.789063 4.3125,-23.34375 0.75,-10.5625 1.125,-24.160156 1.125,-40.796875 0,-16.19531 -0.375,-29.65625 -1.125,-40.375 -0.742187,-10.71875 -2.179687,-18.73828 -4.3125,-24.0625 -2.125,-5.33203 -5.324219,-8 -9.59375,-8 -3.949219,0 -6.992187,2.66797 -9.125,8 -2.125,5.32422 -3.589844,13.34375 -4.390625,24.0625 -0.804688,10.71875 -1.203125,24.17969 -1.203125,40.375 z m 0,0"
           id="path39" />
      </g>
    </g>
  </g>
  <g
     fill="#ffffff"
     fill-opacity="1"
     id="g45"
     transform="translate(-27.796875,-195.75)">
    <g
       transform="translate(664.49609,1160.3522)"
       id="g44">
      <g
         id="g43">
        <path
           d="m 150.65625,-116.59375 c 0,16.855469 -1.04297,32.558594 -3.125,47.109375 -2.07422,14.554687 -5.69922,27.265625 -10.875,38.140625 -5.16797,10.875 -12.25781,19.355469 -21.26562,25.4375 -9.01172,6.070312 -20.500005,9.109375 -34.468755,9.109375 -15.355469,0 -28.179687,-4.476563 -38.46875,-13.4375 -10.28125,-8.957031 -18.011719,-22.3125 -23.1875,-40.0625 -5.167969,-17.75 -7.75,-39.847656 -7.75,-66.296875 0,-27.71875 2.503906,-50.47656 7.515625,-68.28125 5.007812,-17.80078 12.65625,-30.96875 22.9375,-39.5 10.289062,-8.53125 23.273438,-12.79687 38.953125,-12.79687 15.457031,0 28.332035,4.50781 38.625005,13.51562 10.28906,9.01172 18.04687,22.44922 23.26562,40.3125 5.22656,17.85547 7.84375,40.10547 7.84375,66.75 z m -84.453125,0 c 0,16.636719 0.375,30.234375 1.125,40.796875 0.75,10.554687 2.160156,18.335937 4.234375,23.34375 2.082031,5.011719 5.203125,7.515625 9.359375,7.515625 4.269531,0 7.46875,-2.503906 9.59375,-7.515625 2.132813,-5.007813 3.570313,-12.789063 4.3125,-23.34375 0.75,-10.5625 1.125,-24.160156 1.125,-40.796875 0,-16.19531 -0.375,-29.65625 -1.125,-40.375 -0.742187,-10.71875 -2.179687,-18.73828 -4.3125,-24.0625 -2.125,-5.33203 -5.324219,-8 -9.59375,-8 -3.949219,0 -6.992187,2.66797 -9.125,8 -2.125,5.32422 -3.589844,13.34375 -4.390625,24.0625 -0.804688,10.71875 -1.203125,24.17969 -1.203125,40.375 z m 0,0"
           id="path42" />
      </g>
    </g>
  </g>
  <g
     fill="#ffffff"
     fill-opacity="1"
     id="g48"
     transform="translate(-27.796875,-195.75)">
    <g
       transform="translate(822.07397,1160.3522)"
       id="g47">
      <g
         id="g46">
        <path
           d="m 150.65625,-116.59375 c 0,16.855469 -1.04297,32.558594 -3.125,47.109375 -2.07422,14.554687 -5.69922,27.265625 -10.875,38.140625 -5.16797,10.875 -12.25781,19.355469 -21.26562,25.4375 -9.01172,6.070312 -20.500005,9.109375 -34.468755,9.109375 -15.355469,0 -28.179687,-4.476563 -38.46875,-13.4375 -10.28125,-8.957031 -18.011719,-22.3125 -23.1875,-40.0625 -5.167969,-17.75 -7.75,-39.847656 -7.75,-66.296875 0,-27.71875 2.503906,-50.47656 7.515625,-68.28125 5.007812,-17.80078 12.65625,-30.96875 22.9375,-39.5 10.289062,-8.53125 23.273438,-12.79687 38.953125,-12.79687 15.457031,0 28.332035,4.50781 38.625005,13.51562 10.28906,9.01172 18.04687,22.44922 23.26562,40.3125 5.22656,17.85547 7.84375,40.10547 7.84375,66.75 z m -84.453125,0 c 0,16.636719 0.375,30.234375 1.125,40.796875 0.75,10.554687 2.160156,18.335937 4.234375,23.34375 2.082031,5.011719 5.203125,7.515625 9.359375,7.515625 4.269531,0 7.46875,-2.503906 9.59375,-7.515625 2.132813,-5.007813 3.570313,-12.789063 4.3125,-23.34375 0.75,-10.5625 1.125,-24.160156 1.125,-40.796875 0,-16.19531 -0.375,-29.65625 -1.125,-40.375 -0.742187,-10.71875 -2.179687,-18.73828 -4.3125,-24.0625 -2.125,-5.33203 -5.324219,-8 -9.59375,-8 -3.949219,0 -6.992187,2.66797 -9.125,8 -2.125,5.32422 -3.589844,13.34375 -4.390625,24.0625 -0.804688,10.71875 -1.203125,24.17969 -1.203125,40.375 z m 0,0"
           id="path45" />
      </g>
    </g>
  </g>
  <g
     fill="#ffffff"
     fill-opacity="1"
     id="g51"
     transform="translate(-27.796875,-195.75)">
    <g
       transform="translate(979.65186,1160.3522)"
       id="g50">
      <g
         id="g49">
        <path
           d="m 103.79688,-136.89062 h 48.78124 v 42.85937 h -48.78124 v 57.734375 H 59.96875 V -94.03125 H 11.1875 v -42.85937 h 48.78125 v -58.70313 h 43.82813 z m 0,0"
           id="path48" />
      </g>
    </g>
  </g>
</svg>
